<?xml version="1.0" encoding="UTF-8" standalone="no"?>
<!DOCTYPE svg PUBLIC "-//W3C//DTD SVG 1.1//EN" "http://www.w3.org/Graphics/SVG/1.1/DTD/svg11.dtd">
<svg version="1.1" xmlns="http://www.w3.org/2000/svg" xmlns:xlink="http://www.w3.org/1999/xlink" preserveAspectRatio="xMidYMid meet" viewBox="0 0 640 640" width="640" height="640"><defs><path d="M430.31 147.7C435.24 147.7 439.23 151.69 439.23 156.62C439.23 162.62 439.23 171.7 439.23 177.7C439.23 182.63 435.24 186.62 430.31 186.62C384.41 186.62 255.59 186.62 209.69 186.62C204.76 186.62 200.77 182.63 200.77 177.7C200.77 171.7 200.77 162.62 200.77 156.62C200.77 151.69 204.76 147.7 209.69 147.7C255.59 147.7 384.41 147.7 430.31 147.7Z" id="c1APxjoYRL"></path><path d="M404.19 197.23C409.28 197.23 413.4 201.36 413.4 206.45C413.4 244.37 413.4 348.93 413.4 386.85C413.4 391.94 409.28 396.07 404.19 396.07C368.67 396.07 271.33 396.07 235.81 396.07C230.72 396.07 226.6 391.94 226.6 386.85C226.6 348.93 226.6 244.37 226.6 206.45C226.6 201.36 230.72 197.23 235.81 197.23C271.33 197.23 368.67 197.23 404.19 197.23Z" id="d2YzkWkxLi"></path><path d="M360.76 357.86C364.63 357.86 367.76 360.99 367.76 364.86C367.76 366.43 367.76 364.14 367.76 365.72C367.76 369.58 364.63 372.72 360.76 372.72C343.06 372.72 296.94 372.72 279.24 372.72C275.37 372.72 272.24 369.58 272.24 365.72C272.24 364.14 272.24 366.43 272.24 364.86C272.24 360.99 275.37 357.86 279.24 357.86C296.94 357.86 343.06 357.86 360.76 357.86Z" id="a4VULvMbO9"></path></defs><g><g><g><use xlink:href="#c1APxjoYRL" opacity="1" fill="#000000" fill-opacity="1"></use></g><g><use xlink:href="#d2YzkWkxLi" opacity="1" fill="#000000" fill-opacity="1"></use></g><g><use xlink:href="#a4VULvMbO9" opacity="1" fill="#ffffff" fill-opacity="1"></use></g></g></g></svg>