<?xml version="1.0" encoding="UTF-8" standalone="no"?>
<!DOCTYPE svg PUBLIC "-//W3C//DTD SVG 1.1//EN" "http://www.w3.org/Graphics/SVG/1.1/DTD/svg11.dtd">
<svg version="1.1" xmlns="http://www.w3.org/2000/svg" xmlns:xlink="http://www.w3.org/1999/xlink" preserveAspectRatio="xMidYMid meet" viewBox="0 0 640 640" width="100" height="100"><defs><path d="M430.31 140.61C435.24 140.61 439.23 144.6 439.23 149.52C439.23 155.52 439.23 164.61 439.23 170.61C439.23 175.53 435.24 179.53 430.31 179.53C384.41 179.53 255.59 179.53 209.69 179.53C204.76 179.53 200.77 175.53 200.77 170.61C200.77 164.61 200.77 155.52 200.77 149.52C200.77 144.6 204.76 140.61 209.69 140.61C255.59 140.61 384.41 140.61 430.31 140.61Z" id="a7cTd8Bk5"></path><path d="M404.19 197.23C409.28 197.23 413.4 201.36 413.4 206.45C413.4 244.37 413.4 348.93 413.4 386.85C413.4 391.94 409.28 396.07 404.19 396.07C368.67 396.07 271.33 396.07 235.81 396.07C230.72 396.07 226.6 391.94 226.6 386.85C226.6 348.93 226.6 244.37 226.6 206.45C226.6 201.36 230.72 197.23 235.81 197.23C271.33 197.23 368.67 197.23 404.19 197.23Z" id="d2YzkWkxLi"></path><path d="M360.76 361.4C364.63 361.4 367.76 364.54 367.76 368.4C367.76 369.97 367.76 367.69 367.76 369.26C367.76 373.13 364.63 376.26 360.76 376.26C343.06 376.26 296.94 376.26 279.24 376.26C275.37 376.26 272.24 373.13 272.24 369.26C272.24 367.69 272.24 369.97 272.24 368.4C272.24 364.54 275.37 361.4 279.24 361.4C296.94 361.4 343.06 361.4 360.76 361.4Z" id="fDkkaKttV"></path></defs><g><g><g><use xlink:href="#a7cTd8Bk5" opacity="1" fill="#000000" fill-opacity="1"></use></g><g><use xlink:href="#d2YzkWkxLi" opacity="1" fill="#000000" fill-opacity="1"></use></g><g><use xlink:href="#fDkkaKttV" opacity="1" fill="#ffffff" fill-opacity="1"></use></g></g></g></svg>