<svg id="Layer_1" data-name="Layer 1" xmlns="http://www.w3.org/2000/svg" viewBox="0 0 128.64 111.4"><defs><style>.cls-1{fill:none;stroke:#f4bb1c;stroke-miterlimit:10;stroke-width:10px;}.cls-2{fill:#f4bb1c;}</style></defs><title>sideBarHiveIcon</title><polygon class="cls-1" points="93.59 5 122.86 55.7 93.59 106.4 35.05 106.4 5.77 55.7 35.05 5 93.59 5"/><path class="cls-2" d="M52.06,21.51h25c1.29,0,2.33,1.79,2.33,4v.38c0,2.21-1,4-2.33,4h-25c-1.29,0-2.33-1.79-2.33-4v-.38C49.73,23.3,50.77,21.51,52.06,21.51Z" transform="translate(0)"/><path class="cls-2" d="M46,33.51H83.11a3.76,3.76,0,0,1,3.45,4v.38a3.76,3.76,0,0,1-3.45,4H46a3.76,3.76,0,0,1-3.45-4v-.38A3.76,3.76,0,0,1,46,33.51Z" transform="translate(0)"/><path class="cls-2" d="M39,45.51H89.64c2.6,0,4.71,1.79,4.71,4v.38c0,2.21-2.11,4-4.71,4H39c-2.6,0-4.71-1.79-4.71-4v-.38C34.29,47.3,36.4,45.51,39,45.51Z" transform="translate(0)"/><path class="cls-2" d="M39,57.51H89.64c2.6,0,4.71,1.79,4.71,4v.38c0,2.21-2.11,4-4.71,4H39c-2.6,0-4.71-1.79-4.71-4v-.38C34.29,59.3,36.4,57.51,39,57.51Z" transform="translate(0)"/><path class="cls-2" d="M46,69.51H83.12a3.76,3.76,0,0,1,3.45,4v.38a3.76,3.76,0,0,1-3.45,4H46a3.76,3.76,0,0,1-3.45-4v-.38A3.76,3.76,0,0,1,46,69.51Z" transform="translate(0)"/><path class="cls-2" d="M51.82,81.51h25c1.29,0,2.33,1.79,2.33,4v.38c0,2.21-1,4-2.33,4h-25c-1.29,0-2.33-1.79-2.33-4v-.38C49.5,83.3,50.54,81.51,51.82,81.51Z" transform="translate(0)"/></svg>