<svg id="Layer_1" data-name="Layer 1" xmlns="http://www.w3.org/2000/svg" viewBox="0 0 128.64 111.4"><defs><style>.cls-1,.cls-2{fill:none;}.cls-1{stroke:#f4bb1c;stroke-miterlimit:10;stroke-width:10px;}.cls-3{fill:#f4bb1c;}</style></defs><title>sideBarContactsIcon</title><polygon class="cls-1" points="93.59 5 122.86 55.7 93.59 106.4 35.05 106.4 5.77 55.7 35.05 5 93.59 5"/><g id="Icons"><g id="Rounded"><g id="Communication"><g id="_-Round-_-Communication-_-call" data-name=" -Round- -Communication- -call"><g id="Path"><polygon class="cls-2" points="25.24 16.63 103.39 16.63 103.39 94.77 25.24 94.77 25.24 16.63"/><path class="cls-3" d="M87.85,66.32l-8.27-.94a6.48,6.48,0,0,0-5.34,1.86l-6,6A49,49,0,0,1,46.78,51.78l6-6a6.48,6.48,0,0,0,1.86-5.34l-.94-8.21a6.52,6.52,0,0,0-6.48-5.76h-5.6a6.46,6.46,0,0,0-6.52,6.4q0,.17,0,.34A55.33,55.33,0,0,0,86.85,84.95a6.46,6.46,0,0,0,6.73-6.17q0-.17,0-.34V72.81A6.45,6.45,0,0,0,87.85,66.32Z" transform="translate(0)"/></g></g></g></g></g></svg>